<?xml version="1.0" encoding="UTF-8"?>
<!DOCTYPE svg PUBLIC "-//W3C//DTD SVG 1.1//EN" "http://www.w3.org/Graphics/SVG/1.1/DTD/svg11.dtd">
<!-- Creator: CorelDRAW 2019 (64-Bit) -->
<svg xmlns="http://www.w3.org/2000/svg" xml:space="preserve" width="100%" height="100%" version="1.1" style="shape-rendering:geometricPrecision; text-rendering:geometricPrecision; image-rendering:optimizeQuality; fill-rule:evenodd; clip-rule:evenodd"
viewBox="0 0 635.7 138.52"
 xmlns:xlink="http://www.w3.org/1999/xlink">
 <defs>
  <style type="text/css">
   <![CDATA[
    .fil0 {fill:white}
   ]]>
  </style>
 </defs>
 <g id="Слой_x0020_1">
  <metadata id="CorelCorpID_0Corel-Layer"/>
  <path class="fil0" d="M69.27 128.52c32.72,0 59.26,-26.53 59.26,-59.26 0,-32.73 -26.54,-59.26 -59.26,-59.26 -32.73,0 -59.27,26.53 -59.27,59.26 0,32.73 26.54,59.26 59.27,59.26zm437.91 -59.26c0,32.73 26.53,59.26 59.26,59.26 32.72,0 59.26,-26.53 59.26,-59.26 0,-32.73 -26.54,-59.26 -59.26,-59.26 -32.73,0 -59.26,26.53 -59.26,59.26zm59.26 53.49c-29.54,0 -53.49,-23.95 -53.49,-53.49 0,-29.54 23.95,-53.49 53.49,-53.49 29.54,0 53.48,23.95 53.48,53.49 0,29.54 -23.94,53.49 -53.48,53.49zm-183.56 -53.49c0,32.73 26.53,59.26 59.26,59.26 32.73,0 59.26,-26.53 59.26,-59.26 0,-32.73 -26.53,-59.26 -59.26,-59.26 -32.73,0 -59.26,26.53 -59.26,59.26zm59.26 53.49c-29.54,0 -53.48,-23.95 -53.48,-53.49 0,-29.54 23.94,-53.49 53.48,-53.49 29.54,0 53.49,23.95 53.49,53.49 0,29.54 -23.95,53.49 -53.49,53.49zm-183.55 -53.49c0,32.73 26.53,59.26 59.26,59.26 32.73,0 59.26,-26.53 59.26,-59.26 0,-32.73 -26.53,-59.26 -59.26,-59.26 -32.73,0 -59.26,26.53 -59.26,59.26zm59.26 53.49c-29.54,0 -53.49,-23.95 -53.49,-53.49 0,-29.54 23.95,-53.49 53.49,-53.49 29.54,0 53.49,23.95 53.49,53.49 0,29.54 -23.95,53.49 -53.49,53.49zm-183.55 -53.49c0,32.73 26.53,59.26 59.26,59.26 32.73,0 59.26,-26.53 59.26,-59.26 0,-32.73 -26.53,-59.26 -59.26,-59.26 -32.73,0 -59.26,26.53 -59.26,59.26zm59.26 53.49c-29.54,0 -53.49,-23.95 -53.49,-53.49 0,-29.54 23.95,-53.49 53.49,-53.49 29.54,0 53.49,23.95 53.49,53.49 0,29.54 -23.95,53.49 -53.49,53.49zm-70.81 -53.49c0,29.54 -23.94,53.49 -53.48,53.49 -29.55,0 -53.49,-23.95 -53.49,-53.49 0,-29.54 23.94,-53.49 53.49,-53.49 29.54,0 53.48,23.95 53.48,53.49z"/>
 </g>
</svg>
