<?xml version="1.0" encoding="UTF-8"?>
<!DOCTYPE svg PUBLIC "-//W3C//DTD SVG 1.1//EN" "http://www.w3.org/Graphics/SVG/1.1/DTD/svg11.dtd">
<!-- Creator: CorelDRAW 2019 (64-Bit) -->
<svg xmlns="http://www.w3.org/2000/svg" xml:space="preserve" width="100%" height="100%" version="1.1" style="shape-rendering:geometricPrecision; text-rendering:geometricPrecision; image-rendering:optimizeQuality; fill-rule:evenodd; clip-rule:evenodd"
viewBox="0 0 327.61 235.8"
 xmlns:xlink="http://www.w3.org/1999/xlink">
 <defs>
  <style type="text/css">
   <![CDATA[
    .fil0 {fill:white;fill-opacity:0.341176}
   ]]>
  </style>
 </defs>
 <g id="Слой_x0020_1">
  <metadata id="CorelCorpID_0Corel-Layer"/>
  <path class="fil0" d="M163.81 168.74c-14.61,0 -27.84,5.92 -37.42,15.5l37.42 37.42 37.41 -37.42c-9.57,-9.58 -22.8,-15.5 -37.41,-15.5zm0 -105.83c43.83,0 83.52,17.77 112.24,46.5l37.42 -37.42c-38.3,-38.3 -91.22,-61.99 -149.66,-61.99 -58.45,0 -111.36,23.69 -149.67,61.99l37.42 37.42c28.73,-28.73 68.41,-46.5 112.25,-46.5zm-56.13 102.62c14.37,-14.36 34.21,-23.24 56.13,-23.24 21.91,0 41.76,8.88 56.12,23.24l37.42 -37.41c-23.94,-23.94 -57.01,-38.75 -93.54,-38.75 -36.53,0 -69.6,14.81 -93.54,38.75l37.41 37.41z"/>
 </g>
</svg>
